<mxfile host="Electron" agent="Mozilla/5.0 (Windows NT 10.0; Win64; x64) AppleWebKit/537.36 (KHTML, like Gecko) draw.io/26.0.9 Chrome/128.0.6613.186 Electron/32.2.5 Safari/537.36" version="26.0.9">
  <diagram name="1 oldal" id="Q4SvXhHS28PCpfdxLQX7">
    <mxGraphModel dx="954" dy="1826" grid="1" gridSize="10" guides="1" tooltips="1" connect="1" arrows="1" fold="1" page="1" pageScale="1" pageWidth="827" pageHeight="1169" math="0" shadow="0">
      <root>
        <mxCell id="0" />
        <mxCell id="1" parent="0" />
        <mxCell id="ATkJ8m-9xpN213vM54MG-1" value="Young, can throw spore" style="ellipse;whiteSpace=wrap;html=1;aspect=fixed;" parent="1" vertex="1">
          <mxGeometry x="240" y="320" width="80" height="80" as="geometry" />
        </mxCell>
        <mxCell id="ATkJ8m-9xpN213vM54MG-2" value="Young, cannot throw spore" style="ellipse;whiteSpace=wrap;html=1;aspect=fixed;" parent="1" vertex="1">
          <mxGeometry x="240" width="80" height="80" as="geometry" />
        </mxCell>
        <mxCell id="ATkJ8m-9xpN213vM54MG-3" value="Old, can throw spore" style="ellipse;whiteSpace=wrap;html=1;aspect=fixed;" parent="1" vertex="1">
          <mxGeometry x="480" y="320" width="80" height="80" as="geometry" />
        </mxCell>
        <mxCell id="ATkJ8m-9xpN213vM54MG-4" value="Old, cannot throw spore" style="ellipse;whiteSpace=wrap;html=1;aspect=fixed;" parent="1" vertex="1">
          <mxGeometry x="480" width="80" height="80" as="geometry" />
        </mxCell>
        <mxCell id="ATkJ8m-9xpN213vM54MG-5" value="Dead" style="ellipse;whiteSpace=wrap;html=1;aspect=fixed;" parent="1" vertex="1">
          <mxGeometry x="680" y="160" width="80" height="80" as="geometry" />
        </mxCell>
        <mxCell id="ATkJ8m-9xpN213vM54MG-6" value="" style="ellipse;whiteSpace=wrap;html=1;aspect=fixed;fillColor=#000000;" parent="1" vertex="1">
          <mxGeometry x="200" y="420" width="20" height="20" as="geometry" />
        </mxCell>
        <mxCell id="ATkJ8m-9xpN213vM54MG-7" value="" style="endArrow=classic;html=1;rounded=0;exitX=1;exitY=0;exitDx=0;exitDy=0;" parent="1" source="ATkJ8m-9xpN213vM54MG-6" target="ATkJ8m-9xpN213vM54MG-1" edge="1">
          <mxGeometry width="50" height="50" relative="1" as="geometry">
            <mxPoint x="390" y="370" as="sourcePoint" />
            <mxPoint x="440" y="320" as="targetPoint" />
          </mxGeometry>
        </mxCell>
        <mxCell id="ATkJ8m-9xpN213vM54MG-8" value="" style="endArrow=classic;html=1;rounded=0;entryX=0;entryY=1;entryDx=0;entryDy=0;exitX=0;exitY=0;exitDx=0;exitDy=0;" parent="1" source="ATkJ8m-9xpN213vM54MG-1" target="ATkJ8m-9xpN213vM54MG-2" edge="1">
          <mxGeometry width="50" height="50" relative="1" as="geometry">
            <mxPoint x="390" y="370" as="sourcePoint" />
            <mxPoint x="440" y="320" as="targetPoint" />
          </mxGeometry>
        </mxCell>
        <mxCell id="ATkJ8m-9xpN213vM54MG-9" value="throwSpore()&lt;br&gt;[0&amp;lt;=age&amp;lt;2]" style="edgeLabel;html=1;align=center;verticalAlign=middle;resizable=0;points=[];rotation=90;" parent="ATkJ8m-9xpN213vM54MG-8" vertex="1" connectable="0">
          <mxGeometry x="-0.0193" y="-1" relative="1" as="geometry">
            <mxPoint x="9" as="offset" />
          </mxGeometry>
        </mxCell>
        <mxCell id="ATkJ8m-9xpN213vM54MG-10" value="" style="endArrow=classic;html=1;rounded=0;exitX=1;exitY=1;exitDx=0;exitDy=0;entryX=1;entryY=0;entryDx=0;entryDy=0;" parent="1" source="ATkJ8m-9xpN213vM54MG-2" target="ATkJ8m-9xpN213vM54MG-1" edge="1">
          <mxGeometry width="50" height="50" relative="1" as="geometry">
            <mxPoint x="390" y="370" as="sourcePoint" />
            <mxPoint x="440" y="320" as="targetPoint" />
          </mxGeometry>
        </mxCell>
        <mxCell id="ATkJ8m-9xpN213vM54MG-11" value="endOfRoundAdminstration()&lt;br&gt;[0&amp;lt;=age&amp;lt;2 &amp;amp;&amp;amp; numberOfSpores=1]" style="edgeLabel;html=1;align=center;verticalAlign=middle;resizable=0;points=[];rotation=90;" parent="ATkJ8m-9xpN213vM54MG-10" vertex="1" connectable="0">
          <mxGeometry x="0.058" y="1" relative="1" as="geometry">
            <mxPoint x="15" y="-8" as="offset" />
          </mxGeometry>
        </mxCell>
        <mxCell id="ATkJ8m-9xpN213vM54MG-12" value="" style="endArrow=classic;html=1;rounded=0;exitX=1;exitY=0;exitDx=0;exitDy=0;entryX=0;entryY=0;entryDx=0;entryDy=0;" parent="1" source="ATkJ8m-9xpN213vM54MG-2" target="ATkJ8m-9xpN213vM54MG-4" edge="1">
          <mxGeometry width="50" height="50" relative="1" as="geometry">
            <mxPoint x="390" y="370" as="sourcePoint" />
            <mxPoint x="440" y="320" as="targetPoint" />
          </mxGeometry>
        </mxCell>
        <mxCell id="ATkJ8m-9xpN213vM54MG-13" value="endOfRoundAdminstration)()&lt;br&gt;[age=2 &amp;amp;&amp;amp; numberOfSpores&amp;lt;1]" style="edgeLabel;html=1;align=center;verticalAlign=middle;resizable=0;points=[];" parent="ATkJ8m-9xpN213vM54MG-12" vertex="1" connectable="0">
          <mxGeometry x="-0.3904" relative="1" as="geometry">
            <mxPoint x="27" y="-19" as="offset" />
          </mxGeometry>
        </mxCell>
        <mxCell id="ATkJ8m-9xpN213vM54MG-14" value="" style="endArrow=classic;html=1;rounded=0;exitX=1;exitY=1;exitDx=0;exitDy=0;entryX=0;entryY=1;entryDx=0;entryDy=0;" parent="1" source="ATkJ8m-9xpN213vM54MG-1" target="ATkJ8m-9xpN213vM54MG-3" edge="1">
          <mxGeometry width="50" height="50" relative="1" as="geometry">
            <mxPoint x="318" y="22" as="sourcePoint" />
            <mxPoint x="502" y="22" as="targetPoint" />
          </mxGeometry>
        </mxCell>
        <mxCell id="ATkJ8m-9xpN213vM54MG-15" value="endOfRoundAdminstration)()&lt;br&gt;[age=2 &amp;amp;&amp;amp; numberOfSpores=1]" style="edgeLabel;html=1;align=center;verticalAlign=middle;resizable=0;points=[];" parent="ATkJ8m-9xpN213vM54MG-14" vertex="1" connectable="0">
          <mxGeometry x="-0.3904" relative="1" as="geometry">
            <mxPoint x="30" y="14" as="offset" />
          </mxGeometry>
        </mxCell>
        <mxCell id="ATkJ8m-9xpN213vM54MG-16" value="" style="endArrow=classic;html=1;rounded=0;exitX=1;exitY=0.425;exitDx=0;exitDy=0;exitPerimeter=0;entryX=0;entryY=0;entryDx=0;entryDy=0;" parent="1" source="ATkJ8m-9xpN213vM54MG-2" target="ATkJ8m-9xpN213vM54MG-3" edge="1">
          <mxGeometry width="50" height="50" relative="1" as="geometry">
            <mxPoint x="390" y="240" as="sourcePoint" />
            <mxPoint x="440" y="190" as="targetPoint" />
          </mxGeometry>
        </mxCell>
        <mxCell id="ATkJ8m-9xpN213vM54MG-17" value="endOfRoundAdministration()&lt;br&gt;[age=2 &amp;amp;&amp;amp; numberOfSpores=1]" style="edgeLabel;html=1;align=center;verticalAlign=middle;resizable=0;points=[];rotation=60;" parent="ATkJ8m-9xpN213vM54MG-16" vertex="1" connectable="0">
          <mxGeometry x="-0.0972" y="-2" relative="1" as="geometry">
            <mxPoint x="20" y="-1" as="offset" />
          </mxGeometry>
        </mxCell>
        <mxCell id="ATkJ8m-9xpN213vM54MG-18" value="" style="endArrow=classic;html=1;rounded=0;entryX=0;entryY=1;entryDx=0;entryDy=0;exitX=0;exitY=0;exitDx=0;exitDy=0;" parent="1" source="ATkJ8m-9xpN213vM54MG-3" target="ATkJ8m-9xpN213vM54MG-4" edge="1">
          <mxGeometry width="50" height="50" relative="1" as="geometry">
            <mxPoint x="262" y="342" as="sourcePoint" />
            <mxPoint x="262" y="78" as="targetPoint" />
          </mxGeometry>
        </mxCell>
        <mxCell id="ATkJ8m-9xpN213vM54MG-19" value="throwSpore()&lt;br&gt;[2&amp;lt;=age &amp;amp;&amp;amp; sporesThrown&amp;lt;5]" style="edgeLabel;html=1;align=center;verticalAlign=middle;resizable=0;points=[];rotation=90;" parent="ATkJ8m-9xpN213vM54MG-18" vertex="1" connectable="0">
          <mxGeometry x="-0.0193" y="-1" relative="1" as="geometry">
            <mxPoint x="16" y="-3" as="offset" />
          </mxGeometry>
        </mxCell>
        <mxCell id="ATkJ8m-9xpN213vM54MG-20" value="" style="endArrow=classic;html=1;rounded=0;exitX=1;exitY=1;exitDx=0;exitDy=0;entryX=1;entryY=0;entryDx=0;entryDy=0;" parent="1" source="ATkJ8m-9xpN213vM54MG-4" target="ATkJ8m-9xpN213vM54MG-3" edge="1">
          <mxGeometry width="50" height="50" relative="1" as="geometry">
            <mxPoint x="318" y="78" as="sourcePoint" />
            <mxPoint x="318" y="342" as="targetPoint" />
          </mxGeometry>
        </mxCell>
        <mxCell id="ATkJ8m-9xpN213vM54MG-21" value="endOfRoundAdminstration()&lt;br&gt;[2&amp;lt;=age &amp;amp;&amp;amp; numberOfSpores=1]" style="edgeLabel;html=1;align=center;verticalAlign=middle;resizable=0;points=[];rotation=90;" parent="ATkJ8m-9xpN213vM54MG-20" vertex="1" connectable="0">
          <mxGeometry x="0.058" y="1" relative="1" as="geometry">
            <mxPoint x="15" y="-8" as="offset" />
          </mxGeometry>
        </mxCell>
        <mxCell id="ATkJ8m-9xpN213vM54MG-22" value="" style="endArrow=classic;html=1;rounded=0;exitX=1;exitY=0;exitDx=0;exitDy=0;entryX=0;entryY=0.5;entryDx=0;entryDy=0;" parent="1" source="ATkJ8m-9xpN213vM54MG-3" target="ATkJ8m-9xpN213vM54MG-5" edge="1">
          <mxGeometry width="50" height="50" relative="1" as="geometry">
            <mxPoint x="390" y="240" as="sourcePoint" />
            <mxPoint x="440" y="190" as="targetPoint" />
          </mxGeometry>
        </mxCell>
        <mxCell id="ATkJ8m-9xpN213vM54MG-24" value="throwSpore()&lt;br&gt;[sporesThrown=5]" style="edgeLabel;html=1;align=center;verticalAlign=middle;resizable=0;points=[];rotation=-45;" parent="ATkJ8m-9xpN213vM54MG-22" vertex="1" connectable="0">
          <mxGeometry x="0.2417" y="-1" relative="1" as="geometry">
            <mxPoint x="-5" y="27" as="offset" />
          </mxGeometry>
        </mxCell>
        <mxCell id="ATkJ8m-9xpN213vM54MG-25" value="&lt;span style=&quot;color: rgb(0, 0, 0); font-family: Helvetica; font-size: 11px; font-style: normal; font-variant-ligatures: normal; font-variant-caps: normal; font-weight: 400; letter-spacing: normal; orphans: 2; text-align: center; text-indent: 0px; text-transform: none; widows: 2; word-spacing: 0px; -webkit-text-stroke-width: 0px; white-space: nowrap; text-decoration-thickness: initial; text-decoration-style: initial; text-decoration-color: initial; float: none; display: inline !important;&quot;&gt;endOfRoundAdminstration()&lt;/span&gt;&lt;br style=&quot;forced-color-adjust: none; color: rgb(0, 0, 0); font-family: Helvetica; font-size: 11px; font-style: normal; font-variant-ligatures: normal; font-variant-caps: normal; font-weight: 400; letter-spacing: normal; orphans: 2; text-align: center; text-indent: 0px; text-transform: none; widows: 2; word-spacing: 0px; -webkit-text-stroke-width: 0px; white-space: nowrap; text-decoration-thickness: initial; text-decoration-style: initial; text-decoration-color: initial;&quot;&gt;&lt;span style=&quot;color: rgb(0, 0, 0); font-family: Helvetica; font-size: 11px; font-style: normal; font-variant-ligatures: normal; font-variant-caps: normal; font-weight: 400; letter-spacing: normal; orphans: 2; text-align: center; text-indent: 0px; text-transform: none; widows: 2; word-spacing: 0px; -webkit-text-stroke-width: 0px; white-space: nowrap; text-decoration-thickness: initial; text-decoration-style: initial; text-decoration-color: initial; float: none; display: inline !important;&quot;&gt;[0&amp;lt;=age&amp;lt;2 &amp;amp;&amp;amp; numberOfSpores=1]&lt;/span&gt;" style="curved=1;endArrow=classic;html=1;rounded=0;exitX=0;exitY=0.5;exitDx=0;exitDy=0;entryX=0;entryY=0;entryDx=0;entryDy=0;labelBackgroundColor=none;" parent="1" source="ATkJ8m-9xpN213vM54MG-1" target="ATkJ8m-9xpN213vM54MG-1" edge="1">
          <mxGeometry x="-0.4212" y="60" width="50" height="50" relative="1" as="geometry">
            <mxPoint x="250" y="380" as="sourcePoint" />
            <mxPoint x="250" y="290" as="targetPoint" />
            <Array as="points">
              <mxPoint x="190" y="370" />
              <mxPoint x="210" y="300" />
            </Array>
            <mxPoint x="-2" y="16" as="offset" />
          </mxGeometry>
        </mxCell>
        <mxCell id="ATkJ8m-9xpN213vM54MG-26" value="&lt;span style=&quot;color: rgb(0, 0, 0); font-family: Helvetica; font-size: 11px; font-style: normal; font-variant-ligatures: normal; font-variant-caps: normal; font-weight: 400; letter-spacing: normal; orphans: 2; text-align: center; text-indent: 0px; text-transform: none; widows: 2; word-spacing: 0px; -webkit-text-stroke-width: 0px; white-space: nowrap; text-decoration-thickness: initial; text-decoration-style: initial; text-decoration-color: initial; float: none; display: inline !important;&quot;&gt;endOfRoundAdminstration()&lt;/span&gt;&lt;br style=&quot;forced-color-adjust: none; color: rgb(0, 0, 0); font-family: Helvetica; font-size: 11px; font-style: normal; font-variant-ligatures: normal; font-variant-caps: normal; font-weight: 400; letter-spacing: normal; orphans: 2; text-align: center; text-indent: 0px; text-transform: none; widows: 2; word-spacing: 0px; -webkit-text-stroke-width: 0px; white-space: nowrap; text-decoration-thickness: initial; text-decoration-style: initial; text-decoration-color: initial;&quot;&gt;&lt;span style=&quot;color: rgb(0, 0, 0); font-family: Helvetica; font-size: 11px; font-style: normal; font-variant-ligatures: normal; font-variant-caps: normal; font-weight: 400; letter-spacing: normal; orphans: 2; text-align: center; text-indent: 0px; text-transform: none; widows: 2; word-spacing: 0px; -webkit-text-stroke-width: 0px; white-space: nowrap; text-decoration-thickness: initial; text-decoration-style: initial; text-decoration-color: initial; float: none; display: inline !important;&quot;&gt;[0&amp;lt;=age&amp;lt;2 &amp;amp;&amp;amp; numberOfSpores&amp;lt;1]&lt;/span&gt;" style="curved=1;endArrow=classic;html=1;rounded=0;exitX=0;exitY=0.5;exitDx=0;exitDy=0;entryX=0;entryY=0;entryDx=0;entryDy=0;labelBackgroundColor=none;" parent="1" edge="1">
          <mxGeometry x="0.2153" y="58" width="50" height="50" relative="1" as="geometry">
            <mxPoint x="240" y="40" as="sourcePoint" />
            <mxPoint x="252" y="12" as="targetPoint" />
            <Array as="points">
              <mxPoint x="190" y="50" />
              <mxPoint x="210" y="-20" />
            </Array>
            <mxPoint as="offset" />
          </mxGeometry>
        </mxCell>
        <mxCell id="ATkJ8m-9xpN213vM54MG-27" value="&lt;span style=&quot;color: rgb(0, 0, 0); font-family: Helvetica; font-size: 11px; font-style: normal; font-variant-ligatures: normal; font-variant-caps: normal; font-weight: 400; letter-spacing: normal; orphans: 2; text-align: center; text-indent: 0px; text-transform: none; widows: 2; word-spacing: 0px; -webkit-text-stroke-width: 0px; white-space: nowrap; text-decoration-thickness: initial; text-decoration-style: initial; text-decoration-color: initial; float: none; display: inline !important;&quot;&gt;endOfRoundAdminstration()&lt;/span&gt;&lt;br style=&quot;forced-color-adjust: none; color: rgb(0, 0, 0); font-family: Helvetica; font-size: 11px; font-style: normal; font-variant-ligatures: normal; font-variant-caps: normal; font-weight: 400; letter-spacing: normal; orphans: 2; text-align: center; text-indent: 0px; text-transform: none; widows: 2; word-spacing: 0px; -webkit-text-stroke-width: 0px; white-space: nowrap; text-decoration-thickness: initial; text-decoration-style: initial; text-decoration-color: initial;&quot;&gt;&lt;span style=&quot;color: rgb(0, 0, 0); font-family: Helvetica; font-size: 11px; font-style: normal; font-variant-ligatures: normal; font-variant-caps: normal; font-weight: 400; letter-spacing: normal; orphans: 2; text-align: center; text-indent: 0px; text-transform: none; widows: 2; word-spacing: 0px; -webkit-text-stroke-width: 0px; white-space: nowrap; text-decoration-thickness: initial; text-decoration-style: initial; text-decoration-color: initial; float: none; display: inline !important;&quot;&gt;[2&amp;lt;=age &amp;amp;&amp;amp; numberOfSpores&amp;lt;1]&lt;/span&gt;" style="curved=1;endArrow=classic;html=1;rounded=0;exitX=1;exitY=0;exitDx=0;exitDy=0;entryX=1;entryY=0.5;entryDx=0;entryDy=0;labelBackgroundColor=none;" parent="1" source="ATkJ8m-9xpN213vM54MG-4" target="ATkJ8m-9xpN213vM54MG-4" edge="1">
          <mxGeometry x="0.022" y="86" width="50" height="50" relative="1" as="geometry">
            <mxPoint x="590" y="-20" as="sourcePoint" />
            <mxPoint x="602" y="-48" as="targetPoint" />
            <Array as="points">
              <mxPoint x="600" y="-20" />
              <mxPoint x="610" y="50" />
            </Array>
            <mxPoint as="offset" />
          </mxGeometry>
        </mxCell>
        <mxCell id="ATkJ8m-9xpN213vM54MG-28" value="&lt;span style=&quot;color: rgb(0, 0, 0); font-family: Helvetica; font-size: 11px; font-style: normal; font-variant-ligatures: normal; font-variant-caps: normal; font-weight: 400; letter-spacing: normal; orphans: 2; text-align: center; text-indent: 0px; text-transform: none; widows: 2; word-spacing: 0px; -webkit-text-stroke-width: 0px; white-space: nowrap; text-decoration-thickness: initial; text-decoration-style: initial; text-decoration-color: initial; float: none; display: inline !important;&quot;&gt;endOfRoundAdminstration()&lt;/span&gt;&lt;br style=&quot;forced-color-adjust: none; color: rgb(0, 0, 0); font-family: Helvetica; font-size: 11px; font-style: normal; font-variant-ligatures: normal; font-variant-caps: normal; font-weight: 400; letter-spacing: normal; orphans: 2; text-align: center; text-indent: 0px; text-transform: none; widows: 2; word-spacing: 0px; -webkit-text-stroke-width: 0px; white-space: nowrap; text-decoration-thickness: initial; text-decoration-style: initial; text-decoration-color: initial;&quot;&gt;&lt;span style=&quot;color: rgb(0, 0, 0); font-family: Helvetica; font-size: 11px; font-style: normal; font-variant-ligatures: normal; font-variant-caps: normal; font-weight: 400; letter-spacing: normal; orphans: 2; text-align: center; text-indent: 0px; text-transform: none; widows: 2; word-spacing: 0px; -webkit-text-stroke-width: 0px; white-space: nowrap; text-decoration-thickness: initial; text-decoration-style: initial; text-decoration-color: initial; float: none; display: inline !important;&quot;&gt;[2&amp;lt;=age &amp;amp;&amp;amp; numberOfSpores=1]&lt;/span&gt;" style="curved=1;endArrow=classic;html=1;rounded=0;exitX=1;exitY=0;exitDx=0;exitDy=0;entryX=1;entryY=1;entryDx=0;entryDy=0;labelBackgroundColor=none;" parent="1" target="ATkJ8m-9xpN213vM54MG-3" edge="1">
          <mxGeometry x="0.022" y="86" width="50" height="50" relative="1" as="geometry">
            <mxPoint x="560" y="357" as="sourcePoint" />
            <mxPoint x="572" y="385" as="targetPoint" />
            <Array as="points">
              <mxPoint x="610" y="340" />
              <mxPoint x="600" y="420" />
            </Array>
            <mxPoint as="offset" />
          </mxGeometry>
        </mxCell>
      </root>
    </mxGraphModel>
  </diagram>
</mxfile>
